<svg width="26" height="24" viewBox="0 0 26 24" fill="none" xmlns="http://www.w3.org/2000/svg">
<g clip-path="url(#clip0_8_266)">
<path fill-rule="evenodd" clip-rule="evenodd" d="M5.41665 10C5.41665 8.67392 5.98734 7.40215 7.00316 6.46447C8.01898 5.52678 9.39673 5 10.8333 5C12.2699 5 13.6477 5.52678 14.6635 6.46447C15.6793 7.40215 16.25 8.67392 16.25 10C16.25 11.3261 15.6793 12.5979 14.6635 13.5355C13.6477 14.4732 12.2699 15 10.8333 15C9.39673 15 8.01898 14.4732 7.00316 13.5355C5.98734 12.5979 5.41665 11.3261 5.41665 10ZM10.8333 3C9.63219 3 8.44823 3.26338 7.37895 3.76843C6.30967 4.27349 5.38566 5.00578 4.68299 5.90501C3.98033 6.80423 3.51912 7.84467 3.33734 8.94064C3.15557 10.0366 3.25842 11.1568 3.63744 12.2089C4.01646 13.2609 4.6608 14.2149 5.5174 14.9921C6.374 15.7693 7.41836 16.3476 8.56447 16.6794C9.71059 17.0111 10.9257 17.0868 12.1097 16.9001C13.2937 16.7135 14.4127 16.27 15.3747 15.606L20.8997 20.707C21.1028 20.8946 21.3784 21.0001 21.6657 21.0002C21.9531 21.0003 22.2288 20.895 22.432 20.7075C22.6353 20.52 22.7496 20.2656 22.7497 20.0004C22.7498 19.7351 22.6357 19.4806 22.4326 19.293L16.9076 14.193C17.7508 13.1525 18.2636 11.9159 18.3886 10.6217C18.5136 9.32741 18.2459 8.02658 17.6154 6.86481C16.9849 5.70304 16.0166 4.72618 14.8188 4.0436C13.621 3.36103 12.241 2.99967 10.8333 3Z" fill="#09244B"/>
</g>
<defs>
<clipPath id="clip0_8_266">
<rect width="26" height="24" fill="white"/>
</clipPath>
</defs>
</svg>
