<svg width="26" height="24" viewBox="0 0 26 24" fill="none" xmlns="http://www.w3.org/2000/svg">
<g clip-path="url(#clip0_8_270)">
<path d="M13.0001 2.99999C15.0113 2.99999 16.9401 3.73748 18.3623 5.05024C19.7844 6.36299 20.5834 8.14347 20.5834 9.99999V13.764L22.5572 17.408C22.6481 17.5757 22.691 17.7621 22.6819 17.9494C22.6727 18.1367 22.6119 18.3188 22.5051 18.4783C22.3983 18.6378 22.249 18.7695 22.0716 18.8608C21.8942 18.9521 21.6944 19 21.4912 19H4.50889C4.30574 19 4.10595 18.9521 3.92851 18.8608C3.75107 18.7695 3.60185 18.6378 3.49504 18.4783C3.38824 18.3188 3.32738 18.1367 3.31825 17.9494C3.30912 17.7621 3.35202 17.5757 3.44289 17.408L5.41672 13.764V9.99999C5.41672 8.14347 6.21568 6.36299 7.63783 5.05024C9.05998 3.73748 10.9888 2.99999 13.0001 2.99999ZM13.0001 4.99999C11.5635 4.99999 10.1857 5.52677 9.16989 6.46445C8.15407 7.40213 7.58339 8.6739 7.58339 9.99999V13.764C7.58336 14.0743 7.50511 14.3804 7.3548 14.658L6.0873 17H19.9139L18.6464 14.658C18.4957 14.3805 18.4171 14.0744 18.4167 13.764V9.99999C18.4167 8.6739 17.846 7.40213 16.8302 6.46445C15.8144 5.52677 14.4366 4.99999 13.0001 4.99999ZM18.2867 2.36999C18.4677 2.16414 18.7297 2.03302 19.0153 2.00545C19.301 1.97789 19.5867 2.05613 19.8099 2.22299C20.9831 3.09903 21.946 4.19084 22.6374 5.42899C22.7623 5.66411 22.7823 5.93508 22.6931 6.18367C22.604 6.43227 22.4127 6.63866 22.1604 6.75849C21.9082 6.87831 21.6151 6.90202 21.3441 6.82452C21.0731 6.74701 20.8459 6.57448 20.7112 6.34399C20.1576 5.35257 19.3866 4.47836 18.4471 3.77699C18.2239 3.61012 18.0816 3.36828 18.0516 3.10463C18.0215 2.84097 18.1061 2.57709 18.2867 2.37099V2.36999ZM7.71339 2.36999C7.803 2.47207 7.86993 2.58945 7.91037 2.71542C7.95082 2.8414 7.96397 2.97349 7.94908 3.10416C7.93419 3.23482 7.89155 3.3615 7.8236 3.47695C7.75564 3.59239 7.66371 3.69435 7.55305 3.77699C6.61732 4.4755 5.8486 5.34547 5.29539 6.33199C5.2325 6.45239 5.14411 6.55993 5.03543 6.64826C4.92674 6.73659 4.79998 6.80391 4.66263 6.84624C4.52528 6.88857 4.38013 6.90506 4.23576 6.89472C4.09139 6.88439 3.95073 6.84744 3.8221 6.78606C3.69346 6.72469 3.57946 6.64013 3.48683 6.53739C3.39421 6.43464 3.32484 6.3158 3.28282 6.18789C3.2408 6.05998 3.22699 5.92558 3.2422 5.79266C3.25741 5.65973 3.30134 5.53097 3.37139 5.41399C4.06204 4.18195 5.02184 3.09543 6.19022 2.22299C6.4135 2.05625 6.69937 1.97817 6.985 2.00592C7.27062 2.03368 7.53261 2.16499 7.71339 2.37099V2.36999ZM9.75005 20H16.2501C16.2501 20.5304 16.0218 21.0391 15.6155 21.4142C15.2091 21.7893 14.658 22 14.0834 22H11.9167C11.3421 22 10.791 21.7893 10.3847 21.4142C9.97833 21.0391 9.75005 20.5304 9.75005 20Z" fill="#09244B"/>
</g>
<defs>
<clipPath id="clip0_8_270">
<rect width="26" height="24" fill="white"/>
</clipPath>
</defs>
</svg>
